<?xml version="1.0" encoding="utf-8"?>
<!-- Generator: Adobe Illustrator 16.0.0, SVG Export Plug-In . SVG Version: 6.00 Build 0)  -->
<!DOCTYPE svg PUBLIC "-//W3C//DTD SVG 1.1//EN" "http://www.w3.org/Graphics/SVG/1.1/DTD/svg11.dtd">
<svg version="1.1" id="图层_1" xmlns="http://www.w3.org/2000/svg" xmlns:xlink="http://www.w3.org/1999/xlink" x="0px" y="0px"
	 width="200px" height="200px" viewBox="0 0 200 200" enable-background="new 0 0 200 200" xml:space="preserve">
<path fill="#FFE46A" d="M100,0C45,0,0,45,0,100s45,100,100,100s100-45,100-100S155,0,100,0z M145,113.334
	c5,0,8.334,3.332,8.334,8.332S150,130,145,130h-36.666v21.666c0,5-3.334,8.334-8.334,8.334s-8.333-3.333-8.333-8.334v-20H55
	c-5,0-8.333-5-8.333-10S50,113.334,55,113.334h36.667V95H55c-5,0-8.333-3.333-8.333-8.333S50,78.333,55,78.333h21.667L53.333,55
	C50,50,50,45,53.333,41.667c3.333-3.333,10-3.333,13.333,0L100,75l33.334-33.333c3.332-3.333,10-3.333,13.332,0
	C150,45,150,51.667,146.666,55l-25,21.667H145c5,0,8.334,3.333,8.334,8.333S150,93.333,145,93.333h-36.666v18.333H145V113.334z"/>
</svg>
