<?xml version="1.0" standalone="no"?><!DOCTYPE svg PUBLIC "-//W3C//DTD SVG 1.1//EN" "http://www.w3.org/Graphics/SVG/1.1/DTD/svg11.dtd"><svg t="1497071333222" class="icon" style="" viewBox="0 0 1024 1024" version="1.1" xmlns="http://www.w3.org/2000/svg" p-id="5621" xmlns:xlink="http://www.w3.org/1999/xlink" width="200" height="200"><defs><style type="text/css"></style></defs><path d="M586.05667 254.087952c-27.193339-32.825616-93.468788-29.391401-113.930819 25.095561l-23.311939-1.179872c22.420639-121.025401 153.771199-138.002051 205.77255-58.048067l39.97648-19.886933-20.877493 51.349505-20.853957 51.345412-53.547567-14.33038-53.543474-14.33038L586.05667 254.087952 586.05667 254.087952z" p-id="5622" fill="#d4237a"></path><path d="M600.400353 635.107829c12.407588 0 24.14491 0.069585 35.387975 0.101307 11.80793 0.916882 21.785166-0.138146 29.377074-3.935636 8.573259-8.959046 13.945617-23.892153 17.394159-42.411949-10.82658-12.193717-19.399839-27.272133-24.530696-44.101427-6.53688-3.549849-11.383258-9.522887-14.685467-17.603937-3.518127-8.750291-5.130857-20.171412-4.922103-33.661657l0.036839-4.359284 3.619434-2.461051c1.403976-0.911766 2.777253-1.789763 4.145413-2.529613-7.132444-52.91721 2.600221-88.167039 29.624714-108.016109 39.881312-29.238928 114.765837-29.02915 154.192801 3.26537 25.302269 20.766976 32.085766 47.682999 23.9996 105.946984 0.73985 0.455371 1.403976 0.877997 2.106987 1.334391l3.586688 2.461051 0.10847 4.359284c0.208754 13.774725-1.442862 25.367761-5.169743 34.187637-3.405563 8.15575-8.435113 14.128789-15.217586 17.534352-5.54939 17.993816-15.034415 33.945113-26.986631 46.524616 2.883677 14.305821 7.02909 26.321482 13.039991 34.825157 7.447623 8.961092 18.412348 12.231579 32.187073 10.927887 14.615882 0.069585 30.181393 0.107447 47.018873 0.107447l0 0c51.088562 44.557822 60.509119 132.198881 61.597917 183.501314-26.493397 25.828248-128.541585 37.173644-228.26789 35.314297-10.469446-71.363328-127.807874-122.528638-184.626951-142.178163l-1.195222 0" p-id="5623" fill="#d4237a"></path><path d="M211.463156 748.045017c0 0-186.862875 25.467021-186.862875 147.005099 0 121.5391 339.173816 110.291942 339.173816 110.291942L363.774097 943.04113l-65.75868-42.397622-3.459798-70.081125-58.83806-32.013111L211.463156 748.045017 211.463156 748.045017zM516.084015 748.045017c0 0 186.863898 25.467021 186.863898 147.005099 0 121.5391-339.174839 110.291942-339.174839 110.291942l0-62.295811 65.759703-42.397622 3.459798-70.085218 58.837036-32.013111L516.084015 748.045017 516.084015 748.045017zM239.522212 757.881037l92.303242 35.475979 31.948643 98.369402 0 51.318806-49.792033-65.252143-0.825808-75.785034-73.634044-25.954115L239.522212 757.881037zM488.027006 757.881037l-92.303242 35.475979-31.949666 98.369402 0 51.318806 49.792033-65.252143 0.825808-75.785034 73.634044-25.954115L488.025982 757.881037zM308.628126 563.252291c9.259898 0 17.025769 5.361101 19.160385 12.597923 1.515516-2.539846 2.37407-5.406127 2.37407-8.441253 0-10.343579-9.892301-18.724457-22.094204-18.724457-12.20395 0-22.096251 8.380878-22.096251 18.724457 0 3.544733 1.165546 6.861268 3.188622 9.686616C290.725384 569.239656 298.844296 563.252291 308.628126 563.252291L308.628126 563.252291zM417.569304 563.252291c-9.258874 0-17.028838 5.361101-19.163455 12.597923-1.515516-2.539846-2.375094-5.406127-2.375094-8.441253 0-10.343579 9.893324-18.724457 22.097274-18.724457 12.199856 0 22.094204 8.380878 22.094204 18.724457 0 3.544733-1.166569 6.861268-3.184529 9.686616C435.468976 569.239656 427.354158 563.252291 417.569304 563.252291L417.569304 563.252291zM545.790594 479.274668c-1.729387-35.040051-2.393513-56.326866-8.652054-71.814606-20.49887-50.727335-70.463842-124.593669-170.858366-120.703059-100.394525 3.894703-161.828712 85.661985-175.237093 145.362692-9.03784 40.2364-9.03784 50.40704-8.076956 52.759621-3.744277-1.230014-15.697517-3.294023-22.205745 17.325597-7.789407 24.656563 7.788383 65.204048 7.788383 65.204048s16.871249 43.815925 40.23333 56.478316c25.653263 35.880185 73.311703 137.888464 151.848407 143.080719 78.536704 5.188162 124.247792-81.768305 124.247792-81.768305s-41.186028 62.844304-103.482863 62.844304c-62.295811 0-134.287449-66.734914-145.016815-153.694451-10.726296-86.956468 89.900519-106.423845 124.251885-102.529141 34.347273 3.89368 76.571956-18.169825 106.423845 0 29.851888 18.169825 23.361057 99.070366 23.361057 99.070366s2.794649 60.998259-22.49534 80.465636c-25.294083 19.4684-28.752858 21.223371-75.221192 38.098713 1.425466 10.692526-4.824889 9.078773 0 12.088316 92.178399-6.057973 147.898445-122.07122 147.898445-122.07122S596.408435 499.608785 545.790594 479.274668L545.790594 479.274668zM454.452329 385.340275c-23.845081-15.145955-60.356646-20.611433-90.678232-21.414729-27.773554-0.735757-62.032822 5.072529-87.128383 21.414729-17.622356 11.472286-27.566846 31.562856-41.186028 43.47721 7.443529-64.891939 106.077967-87.237877 128.314411-86.956468 22.236444 0.281409 115.337865 18.169825 128.318504 86.956468C483.797681 420.11529 474.602252 398.137743 454.452329 385.340275L454.452329 385.340275zM363.774097 712.89138 363.774097 712.89138c0 11.466146 9.296737 20.764929 20.765953 20.764929 11.468193 0 20.765953-9.295714 20.765953-20.764929l0 0 0 0c0-11.468193-9.296737-20.769023-20.765953-20.769023C373.070834 692.121334 363.774097 701.419094 363.774097 712.89138L363.774097 712.89138 363.774097 712.89138zM402.278039 688.682002c0 0-27.067472 7.601118-39.062668 7.601118-11.990079 0-38.724976-7.601118-38.724976-7.601118-3.327792 0-6.051833-2.352581-6.051833-5.229095l0 0c0-2.877537 2.724041-5.229095 6.051833-5.229095 0 0 29.139667 7.837502 38.724976 7.837502 9.589402 0 39.062668-7.837502 39.062668-7.837502 3.327792 0 6.051833 2.352581 6.051833 5.229095l0 0C408.328849 686.329421 405.605831 688.682002 402.278039 688.682002L402.278039 688.682002zM362.798886 628.632347" p-id="5624" fill="#d4237a"></path></svg>