<?xml version="1.0" standalone="no"?><!DOCTYPE svg PUBLIC "-//W3C//DTD SVG 1.1//EN" "http://www.w3.org/Graphics/SVG/1.1/DTD/svg11.dtd"><svg t="1497071186016" class="icon" style="" viewBox="0 0 1024 1024" version="1.1" xmlns="http://www.w3.org/2000/svg" p-id="4085" xmlns:xlink="http://www.w3.org/1999/xlink" width="200" height="200"><defs><style type="text/css"></style></defs><path d="M768.159124 357.309872c75.722612 0 145.177474 26.836205 199.373817 71.514777L967.532941 228.484831c0-54.82056-44.500517-99.260701-99.393731-99.260701L99.918687 129.22413c-54.893214 0-99.393731 44.440142-99.393731 99.260701l0 513.663896c0 54.82056 44.500517 99.260701 99.393731 99.260701l404.934542 0c-31.836079-49.075719-50.337455-107.602693-50.337455-170.45723C454.515774 497.733065 594.938967 357.309872 768.159124 357.309872zM114.096595 300.601312l341.101725 0 0 56.836473L114.096595 357.437785 114.096595 300.601312zM114.096595 471.302089l341.101725 0 0 56.836473L114.096595 528.138562 114.096595 471.302089zM398.745586 670.378124 114.096595 670.378124l0-56.836473L398.745586 613.541651 398.745586 670.378124z" p-id="4086" fill="#1296db" class="selected"></path><path d="M768.159124 415.638325c-141.006478 0-255.314897 114.308419-255.314897 255.314897s114.308419 255.314897 255.314897 255.314897 255.314897-114.308419 255.314897-255.314897S909.165602 415.638325 768.159124 415.638325zM725.691917 820.1001l-141.472082-137.123031 38.289048-38.289048 102.927207 102.245685 188.544167-189.567473 35.304064 38.885636L725.691917 820.1001z" p-id="4087" fill="#d81e06" class=""></path></svg>